<svg xmlns="http://www.w3.org/2000/svg" version="1.1" xmlns:xlink="http://www.w3.org/1999/xlink" xmlns:svgjs="http://svgjs.dev/svgjs" width="1500" height="808" viewBox="0 0 1500 808"><g transform="matrix(1,0,0,1,-0.09011160342151925,0)"><svg viewBox="0 0 334 180" data-background-color="#111111" preserveAspectRatio="xMidYMid meet" height="808" width="1500" xmlns="http://www.w3.org/2000/svg" xmlns:xlink="http://www.w3.org/1999/xlink"><g id="tight-bounds" transform="matrix(1,0,0,1,0.02006485036184813,0)"><svg viewBox="0 0 333.95985235863225 180" height="180" width="333.95985235863225"><g><svg viewBox="0 0 341.9529816299573 184.308192313169" height="180" width="333.95985235863225"><g><svg viewBox="0 0 341.9529816299573 184.308192313169" height="184.308192313169" width="341.9529816299573"><g><path d="M0 184.308v-184.308h341.953v184.308z" fill="#111111" stroke="transparent" stroke-width="0" rx="0%" data-fill-palette-color="tertiary"></path><path d="M3.283 181.025v-177.742h335.387v177.742z" fill="#ffd223" stroke="transparent" stroke-width="0" rx="0%" data-fill-palette-color="quaternary"></path><path d="M9.85 174.458v-164.608h322.253v164.608z" fill="#111111" stroke="transparent" stroke-width="0" data-fill-palette-color="tertiary"></path></g><g transform="matrix(1,0,0,1,19.69974,19.69974)" id="textblocktransform"><svg viewBox="0 0 302.55350162995734 144.90871231316902" height="144.90871231316902" width="302.55350162995734" id="textblock"><g><svg viewBox="0 0 302.55350162995734 100.57561757280003" height="100.57561757280003" width="302.55350162995734"><g transform="matrix(1,0,0,1,0,0)"><svg width="302.55350162995734" viewBox="2.8 -35.95 109.79 36.5" height="100.57561757280003" data-palette-color="#ffd223"><path d="M16.75-35.25Q22.3-35.25 26.48-33.02 30.65-30.8 32.9-26.8 35.15-22.8 35.15-17.65L35.15-17.65Q35.15-12.55 32.88-8.55 30.6-4.55 26.43-2.27 22.25 0 16.75 0L16.75 0 2.8 0 2.8-35.25 16.75-35.25ZM16-8.65Q20.3-8.65 22.75-11 25.2-13.35 25.2-17.65L25.2-17.65Q25.2-22 22.75-24.38 20.3-26.75 16-26.75L16-26.75 12.6-26.75 12.6-8.65 16-8.65ZM77.45 0L66.4 0 63.55-2.7Q58.8 0.55 52.2 0.55L52.2 0.55Q48.05 0.55 44.97-0.8 41.9-2.15 40.22-4.6 38.55-7.05 38.55-10.25L38.55-10.25Q38.55-13.45 40.22-16.07 41.9-18.7 45.25-20.35L45.25-20.35Q44-21.95 43.45-23.4 42.9-24.85 42.9-26.5L42.9-26.5Q42.9-29.1 44.25-31.25 45.6-33.4 48.22-34.68 50.85-35.95 54.45-35.95L54.45-35.95Q58.1-35.95 60.65-34.63 63.2-33.3 64.47-31.13 65.75-28.95 65.7-26.4L65.7-26.4 56.65-26.4Q56.65-27.55 56-28.15 55.35-28.75 54.4-28.75L54.4-28.75Q53.4-28.75 52.72-28.18 52.05-27.6 52.05-26.6L52.05-26.6Q52.05-24.85 54.55-22.35L54.55-22.35 62.8-14.3Q63.25-15.2 63.75-16.45L63.75-16.45 64.75-18.25 74.45-18.25 73-15.45Q71.2-11.15 69.05-8.2L69.05-8.2 77.45 0ZM52.85-7.3Q55.5-7.3 57.55-8.45L57.55-8.45 50.6-15.1Q49.3-14.3 48.65-13.25 48-12.2 48-11.1L48-11.1Q48-9.5 49.3-8.4 50.6-7.3 52.85-7.3L52.85-7.3ZM94.2-35.25Q99.75-35.25 103.92-33.02 108.1-30.8 110.34-26.8 112.59-22.8 112.59-17.65L112.59-17.65Q112.59-12.55 110.32-8.55 108.05-4.55 103.87-2.27 99.7 0 94.2 0L94.2 0 80.25 0 80.25-35.25 94.2-35.25ZM93.45-8.65Q97.75-8.65 100.2-11 102.65-13.35 102.65-17.65L102.65-17.65Q102.65-22 100.2-24.38 97.75-26.75 93.45-26.75L93.45-26.75 90.05-26.75 90.05-8.65 93.45-8.65Z" opacity="1" transform="matrix(1,0,0,1,0,0)" fill="#ffd223" class="undefined-text-0" data-fill-palette-color="quaternary" id="text-0"></path></svg></g></svg></g><g transform="matrix(1,0,0,1,0,107.14219757280003)"><svg viewBox="0 0 302.55350162995734 37.766514740368976" height="37.766514740368976" width="302.55350162995734"><g transform="matrix(1,0,0,1,0,0)"><svg width="302.55350162995734" viewBox="2 -35.35 287.17 35.85" height="37.766514740368976" data-palette-color="#ffd223"><path d="M11.2-0.05L2.25 0Q2 0 2-0.25L2-0.25 2.1-34.6Q2.1-34.8 2.3-34.8L2.3-34.8 11.65-34.85Q14.4-34.9 16.68-33.55 18.95-32.2 20.3-29.93 21.65-27.65 21.65-24.9L21.65-24.9 21.65-10.55Q21.65-7.65 20.25-5.28 18.85-2.9 16.5-1.5 14.15-0.1 11.2-0.05L11.2-0.05ZM8.15-28.8L8.1-6.15 11.2-6.15Q13.05-6.15 14.33-7.45 15.6-8.75 15.6-10.55L15.6-10.55 15.6-24.95Q15.6-26.55 14.43-27.73 13.25-28.9 11.65-28.85L11.65-28.85 8.15-28.8ZM33.65 0.5L33.65 0.5Q30.95 0.5 28.72-0.88 26.5-2.25 25.15-4.53 23.8-6.8 23.8-9.55L23.8-9.55 23.85-25.4Q23.85-28.15 25.17-30.4 26.5-32.65 28.75-34 31-35.35 33.65-35.35L33.65-35.35Q36.35-35.35 38.55-34 40.75-32.65 42.07-30.4 43.4-28.15 43.4-25.4L43.4-25.4 43.45-9.55Q43.45-6.8 42.12-4.53 40.8-2.25 38.57-0.88 36.35 0.5 33.65 0.5ZM33.65-5.55L33.65-5.55Q35.15-5.55 36.27-6.78 37.4-8 37.4-9.55L37.4-9.55 37.35-25.4Q37.35-27.05 36.3-28.2 35.25-29.35 33.65-29.35L33.65-29.35Q32.1-29.35 31-28.23 29.9-27.1 29.9-25.4L29.9-25.4 29.9-9.55Q29.9-7.9 31-6.73 32.1-5.55 33.65-5.55ZM56.45 0.5L56.45 0.5Q53.7 0.5 51.47-0.88 49.25-2.25 47.95-4.55 46.65-6.85 46.65-9.7L46.65-9.7 46.7-25.3Q46.7-28.05 47.97-30.33 49.25-32.6 51.47-33.98 53.7-35.35 56.45-35.35L56.45-35.35Q59.2-35.35 61.4-34 63.6-32.65 64.9-30.38 66.2-28.1 66.2-25.3L66.2-25.3 66.2-23Q66.2-22.8 66-22.8L66-22.8 60.4-22.8Q60.2-22.8 60.2-23L60.2-23 60.2-25.3Q60.2-26.95 59.12-28.15 58.05-29.35 56.45-29.35L56.45-29.35Q54.65-29.35 53.7-28.13 52.75-26.9 52.75-25.3L52.75-25.3 52.75-9.7Q52.75-7.85 53.82-6.7 54.9-5.55 56.45-5.55L56.45-5.55Q58.05-5.55 59.12-6.83 60.2-8.1 60.2-9.7L60.2-9.7 60.2-12Q60.2-12.2 60.4-12.2L60.4-12.2 66.05-12.2Q66.25-12.2 66.25-12L66.25-12 66.25-9.7Q66.25-6.85 64.92-4.55 63.6-2.25 61.4-0.88 59.2 0.5 56.45 0.5ZM75.74 0L70.09 0Q69.89 0 69.89-0.25L69.89-0.25 69.99-34.55Q69.99-34.8 70.19-34.8L70.19-34.8 75.79-34.8Q75.99-34.8 75.99-34.55L75.99-34.55 75.99-22.7 83.84-34.6Q83.99-34.8 84.19-34.8L84.19-34.8 89.94-34.8Q90.14-34.8 90.04-34.6L90.04-34.6 81.39-20.8 91.09-0.2Q91.19 0 90.84 0L90.84 0 84.74 0Q84.49 0 84.44-0.2L84.44-0.2 77.69-14.9 75.94-12.15 75.94-0.25Q75.94 0 75.74 0L75.74 0ZM100.19-0.25L100.19-0.25 106.39-34.6Q106.44-34.8 106.64-34.8L106.64-34.8 113.89-34.8Q114.09-34.8 114.14-34.6L114.14-34.6 120.09-0.25Q120.14 0 119.89 0L119.89 0 114.34 0Q114.14 0 114.09-0.25L114.09-0.25 113.54-3.9 106.74-3.9 106.19-0.25Q106.14 0 105.94 0L105.94 0 100.39 0Q100.19 0 100.19-0.25ZM109.99-23.3L107.74-9.25 112.54-9.25 110.49-23.3 110.19-25.15 109.99-23.3ZM128.69 0L123.69 0Q123.29 0 123.29-0.35L123.29-0.35 123.24-34.4Q123.24-34.8 123.64-34.8L123.64-34.8 128.14-34.8 136.59-15.1 136.34-34.4Q136.34-34.8 136.79-34.8L136.79-34.8 141.74-34.8Q142.04-34.8 142.04-34.4L142.04-34.4 142.09-0.3Q142.09 0 141.84 0L141.84 0 137.44 0 128.79-18.4 129.14-0.4Q129.14 0 128.69 0L128.69 0ZM155.63-0.05L146.68 0Q146.43 0 146.43-0.25L146.43-0.25 146.53-34.6Q146.53-34.8 146.73-34.8L146.73-34.8 156.08-34.85Q158.83-34.9 161.11-33.55 163.38-32.2 164.73-29.93 166.08-27.65 166.08-24.9L166.08-24.9 166.08-10.55Q166.08-7.65 164.68-5.28 163.28-2.9 160.93-1.5 158.58-0.1 155.63-0.05L155.63-0.05ZM152.58-28.8L152.53-6.15 155.63-6.15Q157.48-6.15 158.76-7.45 160.03-8.75 160.03-10.55L160.03-10.55 160.03-24.95Q160.03-26.55 158.86-27.73 157.68-28.9 156.08-28.85L156.08-28.85 152.58-28.8ZM186.63-0.05L177.68 0Q177.43 0 177.43-0.25L177.43-0.25 177.53-34.6Q177.53-34.8 177.73-34.8L177.73-34.8 187.08-34.85Q189.83-34.9 192.1-33.55 194.38-32.2 195.73-29.93 197.08-27.65 197.08-24.9L197.08-24.9 197.08-10.55Q197.08-7.65 195.68-5.28 194.28-2.9 191.93-1.5 189.58-0.1 186.63-0.05L186.63-0.05ZM183.58-28.8L183.53-6.15 186.63-6.15Q188.48-6.15 189.75-7.45 191.03-8.75 191.03-10.55L191.03-10.55 191.03-24.95Q191.03-26.55 189.85-27.73 188.68-28.9 187.08-28.85L187.08-28.85 183.58-28.8ZM217.38 0L201.23 0Q201.03 0 201.03-0.25L201.03-0.25 201.08-34.6Q201.08-34.8 201.28-34.8L201.28-34.8 217.33-34.8Q217.53-34.8 217.53-34.55L217.53-34.55 217.53-28.95Q217.53-28.75 217.33-28.75L217.33-28.75 207.08-28.75 207.08-20.95 217.33-20.95Q217.53-20.95 217.53-20.75L217.53-20.75 217.58-15.1Q217.58-14.9 217.38-14.9L217.38-14.9 207.08-14.9 207.08-6.15 217.38-6.15Q217.58-6.15 217.58-5.9L217.58-5.9 217.58-0.2Q217.58 0 217.38 0L217.38 0ZM232.67 0L227.02 0Q226.82 0 226.82-0.25L226.82-0.25 226.82-28.75 220.32-28.75Q220.07-28.75 220.07-29L220.07-29 220.12-34.6Q220.12-34.8 220.32-34.8L220.32-34.8 239.32-34.8Q239.57-34.8 239.57-34.6L239.57-34.6 239.57-29Q239.57-28.75 239.37-28.75L239.37-28.75 232.82-28.75 232.87-0.25Q232.87 0 232.67 0L232.67 0ZM238.52-0.25L238.52-0.25 244.72-34.6Q244.77-34.8 244.97-34.8L244.97-34.8 252.22-34.8Q252.42-34.8 252.47-34.6L252.47-34.6 258.42-0.25Q258.47 0 258.22 0L258.22 0 252.67 0Q252.47 0 252.42-0.25L252.42-0.25 251.87-3.9 245.07-3.9 244.52-0.25Q244.47 0 244.27 0L244.27 0 238.72 0Q238.52 0 238.52-0.25ZM248.32-23.3L246.07-9.25 250.87-9.25 248.82-23.3 248.52-25.15 248.32-23.3ZM267.47 0L261.82 0Q261.57 0 261.57-0.25L261.57-0.25 261.62-34.6Q261.62-34.8 261.82-34.8L261.82-34.8 267.42-34.8Q267.62-34.8 267.62-34.6L267.62-34.6 267.67-0.25Q267.67 0 267.47 0L267.47 0ZM288.92 0L272.77 0Q272.57 0 272.57-0.25L272.57-0.25 272.62-34.55Q272.62-34.8 272.87-34.8L272.87-34.8 278.42-34.8Q278.67-34.8 278.67-34.55L278.67-34.55 278.62-6.15 288.92-6.15Q289.17-6.15 289.17-5.9L289.17-5.9 289.17-0.25Q289.17 0 288.92 0L288.92 0Z" opacity="1" transform="matrix(1,0,0,1,0,0)" fill="#ffd223" class="undefined-text-1" data-fill-palette-color="quaternary" id="text-1"></path></svg></g></svg></g></svg></g></svg></g><g></g></svg></g><defs></defs></svg><rect width="333.95985235863225" height="180" fill="none" stroke="none" visibility="hidden"></rect></g></svg></g></svg>